<?xml version="1.0" encoding="iso-8859-1"?>
<!-- Uploaded to: SVG Repo, www.svgrepo.com, Generator: SVG Repo Mixer Tools -->
<svg version="1.1" id="Layer_1" xmlns="http://www.w3.org/2000/svg" xmlns:xlink="http://www.w3.org/1999/xlink" 
	 viewBox="0 0 366.801 366.801" xml:space="preserve">
<g id="XMLID_1341_">
	<g id="XMLID_1342_">
		<path id="XMLID_57_" style="fill:#FAE16E;" d="M262.077,88.28c-3.592,3.592-7.587,6.533-11.832,8.847l-70.149-70.149
			c2.314-4.245,5.255-8.24,8.847-11.832c20.195-20.195,52.938-20.195,73.134,0C282.272,35.342,282.273,68.085,262.077,88.28z"/>
		<path id="XMLID_56_" style="fill:#FCE98E;" d="M254.323,80.525c-3.645,3.645-7.813,6.445-12.259,8.421L188.278,35.16
			c1.975-4.445,4.775-8.613,8.421-12.259c15.912-15.912,41.712-15.913,57.624,0S270.235,64.613,254.323,80.525z"/>
	</g>
	<g id="XMLID_1343_">
		<g id="XMLID_1344_">
			<path id="XMLID_1345_" style="fill:#C1E8E6;" d="M107.332,109.841c0,69.34-16.809,90.352-16.809,119.769
				c0,26.872,10.538,61.329,61.478,67.091h31.132c50.941-5.762,61.479-40.219,61.479-67.091c0-29.417-16.81-50.429-16.81-119.769
				c0-34.071,14.939-66.813,17.755-67.011h-77.99h-77.99C92.394,43.028,107.332,78.892,107.332,109.841z"/>
			<path id="XMLID_1348_" style="fill:#A0CFF1;" d="M245.557,42.83h-77.99v253.871h15.566c50.941-5.762,61.479-40.219,61.479-67.091
				c0-29.417-16.81-50.429-16.81-119.768C227.802,78.587,242.741,43.028,245.557,42.83z"/>
		</g>
		<g id="XMLID_1349_">
			<path id="XMLID_47_" style="fill:#C1E8E6;" d="M220.653,354.772l-53.086-26.719l-53.086,26.719
				c-5.303,3.701-2.684,12.029,3.783,12.029h98.607C223.337,366.801,225.956,358.473,220.653,354.772z"/>
			<rect id="XMLID_44_" x="154.353" y="177.609" style="fill:#C1E8E6;" width="26.428" height="159.652"/>
			<path id="XMLID_1354_" style="fill:#A0CFF1;" d="M220.653,354.772l-53.086-26.72v38.749h49.303
				C223.337,366.801,225.956,358.473,220.653,354.772z"/>
			<rect id="XMLID_1357_" x="167.567" y="177.609" style="fill:#A0CFF1;" width="13.214" height="159.653"/>
		</g>
	</g>
	<g id="XMLID_1358_">
		<path id="XMLID_1359_" style="fill:#FF628B;" d="M227.851,219.467c-0.928-6.26-2.57-12.765-4.483-20.298
			c-2.747-10.814-6.066-23.893-8.435-41.156c-1.823-13.285-3.083-29.045-3.083-48.173c0-4.564,0.087-8.977,0.23-13.279h-89.023
			c0.143,4.302,0.229,8.715,0.229,13.279c0,19.128-1.26,34.889-3.083,48.173c-2.369,17.263-5.688,30.342-8.435,41.156
			c-1.914,7.533-3.555,14.038-4.483,20.298c-0.506,3.412-0.809,6.753-0.809,10.143c0,34.98,19.984,51.986,61.093,51.986
			s61.093-17.006,61.093-51.986C228.66,226.22,228.357,222.878,227.851,219.467z"/>
		<path id="XMLID_1362_" style="fill:#CF476A;" d="M227.851,219.467c-0.928-6.26-2.57-12.765-4.483-20.298
			c-2.747-10.814-6.066-23.893-8.435-41.156c-1.823-13.285-3.083-29.045-3.083-48.173c0-4.564,0.087-8.977,0.23-13.279h-44.512
			v185.035c41.108,0,61.093-17.006,61.093-51.986C228.66,226.22,228.357,222.878,227.851,219.467z"/>
	</g>
</g>
</svg>