<?xml version="1.0" encoding="utf-8"?><!-- Uploaded to: SVG Repo, www.svgrepo.com, Generator: SVG Repo Mixer Tools -->
<svg width="800px" height="800px" viewBox="0 0 24 24" fill="none" xmlns="http://www.w3.org/2000/svg">
<path d="M16 7L15.3787 4.51493C15.1561 3.62459 14.3562 3 13.4384 3H10.5616C9.64382 3 8.84385 3.62459 8.62127 4.51493L8 7M8 17L8.62127 19.4851C8.84385 20.3754 9.64382 21 10.5616 21H13.4384C14.3562 21 15.1561 20.3754 15.3787 19.4851L16 17M12 10V12.5L13.75 13.5M18 10V14C18 15.6569 16.6569 17 15 17H9C7.34315 17 6 15.6569 6 14V10C6 8.34315 7.34315 7 9 7H15C16.6569 7 18 8.34315 18 10Z" stroke="#000000" stroke-width="2" stroke-linecap="round" stroke-linejoin="round"/>
</svg>